<svg xmlns="http://www.w3.org/2000/svg" xmlns:xlink="http://www.w3.org/1999/xlink" viewBox="0 0 56.25 56.25"><defs><style>.cls-1,.cls-2{fill-rule:evenodd;}.cls-1{fill:url(#radial-gradient);}.cls-2{fill:#fff;}</style><radialGradient id="radial-gradient" cx="-1668.29" cy="-6298.69" r="0.08" gradientTransform="translate(1334639.91 5038999.31) scale(800 800)" gradientUnits="userSpaceOnUse"><stop offset="0" stop-color="#09f"/><stop offset="0.61" stop-color="#a033ff"/><stop offset="0.93" stop-color="#ff5280"/><stop offset="1" stop-color="#ff7061"/></radialGradient></defs><g id="Layer_2" data-name="Layer 2"><g id="Layer_1-2" data-name="Layer 1"><g id="logo"><path id="Path" class="cls-1" d="M28.13,0C12.28,0,0,11.61,0,27.28A26.69,26.69,0,0,0,8.83,47.46a2.25,2.25,0,0,1,.76,1.6l.15,5a2.26,2.26,0,0,0,3.16,2l5.58-2.47a2.21,2.21,0,0,1,1.5-.11,30.53,30.53,0,0,0,8.14,1.08C44,54.56,56.25,43,56.25,27.28S44,0,28.13,0Z"/><path id="Path-2" data-name="Path" class="cls-2" d="M11.24,35.26,19.5,22.15A4.22,4.22,0,0,1,25.6,21L32.17,26a1.68,1.68,0,0,0,2,0l8.88-6.74A1.33,1.33,0,0,1,45,21L36.75,34.1a4.22,4.22,0,0,1-6.1,1.12L24.08,30.3a1.68,1.68,0,0,0-2,0L13.17,37a1.33,1.33,0,0,1-1.93-1.78Z"/></g></g></g></svg>