<?xml version="1.0" encoding="utf-8"?>
<!-- Generator: Adobe Illustrator 25.0.0, SVG Export Plug-In . SVG Version: 6.00 Build 0)  -->
<svg version="1.1" id="Layer_1" xmlns="http://www.w3.org/2000/svg" xmlns:xlink="http://www.w3.org/1999/xlink" x="0px" y="0px"
	 viewBox="0 0 56.2 56.3" style="enable-background:new 0 0 56.2 56.3;" xml:space="preserve">
<style type="text/css">
	.st0{fill:#F6901E;}
	.st1{fill:url(#SVGID_1_);}
	.st2{fill:url(#SVGID_2_);}
	.st3{fill:#C0CDCC;}
	.st4{fill:url(#SVGID_3_);}
	.st5{fill:url(#SVGID_4_);}
	.st6{fill:url(#SVGID_5_);}
</style>
<g id="Layer_2_1_">
	<g id="Layer_1-2">
		<path class="st0" d="M26.6,0.7L0,22.2v4h56.2v-4L29.5,0.7C28.7,0,27.5,0,26.6,0.7z"/>
		
			<linearGradient id="SVGID_1_" gradientUnits="userSpaceOnUse" x1="-45.8103" y1="-838.7586" x2="4.7997" y2="-889.3586" gradientTransform="matrix(1.07 0 0 -1.07 58.07 -892.2599)">
			<stop  offset="0" style="stop-color:#FFFFFF"/>
			<stop  offset="1" style="stop-color:#E7EEEC"/>
		</linearGradient>
		<path class="st1" d="M51.5,48.5H4.6c-1.3,0-2.3-1-2.3-2.3V2.3C2.3,1,3.4,0,4.6,0h46.9c1.3,0,2.3,1,2.3,2.3v43.8
			C53.9,47.4,52.8,48.5,51.5,48.5z"/>
		
			<linearGradient id="SVGID_2_" gradientUnits="userSpaceOnUse" x1="-3.6659" y1="-875.4551" x2="-54.7259" y2="-879.5651" gradientTransform="matrix(1.07 0 0 -1.07 58.07 -892.2599)">
			<stop  offset="0" style="stop-color:#C0CDCC;stop-opacity:0"/>
			<stop  offset="0.18" style="stop-color:#AEBBBB;stop-opacity:0.18"/>
			<stop  offset="1" style="stop-color:#5C6A6A"/>
		</linearGradient>
		<path class="st2" d="M53.9,44.9v0.9c0,1.5-1.2,2.7-2.7,2.7c0,0,0,0,0,0H5c-1.5,0-2.7-1.2-2.7-2.7v-0.9H53.9z"/>
		<rect x="13.2" y="7.3" class="st3" width="29.8" height="1.7"/>
		<rect x="13.2" y="14.1" class="st3" width="29.8" height="1.7"/>
		<rect x="13.2" y="21.1" class="st3" width="29.8" height="1.7"/>
		<rect x="13.2" y="28" class="st3" width="29.8" height="1.7"/>
		
			<linearGradient id="SVGID_3_" gradientUnits="userSpaceOnUse" x1="-28.0234" y1="-867.8117" x2="-28.0234" y2="-887.3517" gradientTransform="matrix(1.07 0 0 -1.07 58.07 -892.2599)">
			<stop  offset="0" style="stop-color:#FCC10F"/>
			<stop  offset="0.27" style="stop-color:#FCB912"/>
			<stop  offset="0.66" style="stop-color:#F9A619"/>
			<stop  offset="1" style="stop-color:#F6901E"/>
		</linearGradient>
		<path class="st4" d="M56.2,22.3v31.7c0,1.3-1,2.3-2.3,2.3h0H2.3c-1.3,0-2.3-1-2.3-2.3V22.3l28.4,22.4L56.2,22.3z"/>
		
			<linearGradient id="SVGID_4_" gradientUnits="userSpaceOnUse" x1="-27.9206" y1="-882.7217" x2="-27.9206" y2="-889.5117" gradientTransform="matrix(1.07 0 0 -1.07 58.07 -892.2599)">
			<stop  offset="0" style="stop-color:#FCC10F"/>
			<stop  offset="0.27" style="stop-color:#FCB912"/>
			<stop  offset="0.66" style="stop-color:#F9A619"/>
			<stop  offset="1" style="stop-color:#F6901E"/>
		</linearGradient>
		<path class="st5" d="M55.9,55.1l-26-21c-0.9-0.7-2.1-0.7-2.9,0L0.5,55.4c0.4,0.5,1.1,0.8,1.8,0.8h51.5
			C54.7,56.2,55.4,55.8,55.9,55.1z"/>
		
			<linearGradient id="SVGID_5_" gradientUnits="userSpaceOnUse" x1="-38.8026" y1="-845.7808" x2="-75.8426" y2="-808.7508" gradientTransform="matrix(1.07 0 0 -1.07 58.07 -892.2599)">
			<stop  offset="0" style="stop-color:#C0CDCC;stop-opacity:0"/>
			<stop  offset="0.18" style="stop-color:#AEBBBB;stop-opacity:0.18"/>
			<stop  offset="1" style="stop-color:#5C6A6A"/>
		</linearGradient>
		<path class="st6" d="M3,46.9V3c0-1.3,1.1-2.3,2.3-2.3c0,0,0,0,0,0h46.9c0.4,0,0.9,0.1,1.2,0.4c-0.4-0.7-1.2-1.1-2-1.1H4.6
			C3.4,0,2.3,1,2.3,2.3v43.8c0,0.8,0.4,1.6,1.1,2C3.1,47.8,3,47.3,3,46.9z"/>
	</g>
</g>
</svg>
