<svg xmlns="http://www.w3.org/2000/svg" xmlns:xlink="http://www.w3.org/1999/xlink" viewBox="0 0 49.44 56.25"><defs><style>.cls-1{fill:none;}.cls-2{clip-path:url(#clip-path);}.cls-3{fill:#634dfa;}.cls-4{fill:#644dfa;}.cls-5{fill:#654efa;}.cls-6{fill:#664efa;}.cls-7{fill:#674efa;}.cls-8{fill:#684efa;}.cls-9{fill:#694ffa;}.cls-10{fill:#6a4ffa;}.cls-11{fill:#6b4ffa;}.cls-12{fill:#6c4ffa;}.cls-13{fill:#6d50fa;}.cls-14{fill:#6e50fa;}.cls-15{fill:#6f50fa;}.cls-16{fill:url(#linear-gradient);}.cls-17{clip-path:url(#clip-path-2);}.cls-18{fill:#4b48f9;}.cls-19{fill:#4c48f9;}.cls-20{fill:#4d48f9;}.cls-21{fill:#4e48f9;}.cls-22{fill:#4f49f9;}.cls-23{fill:#5049f9;}.cls-24{fill:#5149f9;}.cls-25{fill:#5249f9;}.cls-26{fill:#534af9;}.cls-27{fill:#544af9;}.cls-28{fill:#554af9;}.cls-29{fill:#564af9;}.cls-30{fill:#584bfa;}.cls-31{fill:#594bfa;}.cls-32{fill:#5a4bfa;}.cls-33{fill:#5b4bfa;}.cls-34{fill:#5c4cfa;}.cls-35{fill:#5d4cfa;}.cls-36{fill:#5e4cfa;}.cls-37{fill:#5f4cfa;}.cls-38{fill:#604dfa;}.cls-39{fill:#614dfa;}.cls-40{clip-path:url(#clip-path-3);}.cls-41{fill:#3743f9;}.cls-42{fill:#3843f9;}.cls-43{fill:#3943f9;}.cls-44{fill:#3a44f9;}.cls-45{fill:#3b44f9;}.cls-46{fill:#3c44f9;}.cls-47{fill:#3d44f9;}.cls-48{fill:#3e45f9;}.cls-49{fill:#3f45f9;}.cls-50{fill:#4045f9;}.cls-51{fill:#4145f9;}.cls-52{fill:#4246f9;}.cls-53{fill:#4346f9;}.cls-54{fill:#4446f9;}.cls-55{fill:#4546f9;}.cls-56{fill:#4647f9;}.cls-57{fill:#4747f9;}.cls-58{fill:#4847f9;}.cls-59{fill:#4947f9;}.cls-60{fill:#4a48f9;}</style><clipPath id="clip-path"><path class="cls-1" d="M24.72,56.25a8.27,8.27,0,0,0,7.55-4.94H17.17a8.26,8.26,0,0,0,7.55,4.94Z"/></clipPath><linearGradient id="linear-gradient" y1="24.01" x2="49.44" y2="24.01" gradientUnits="userSpaceOnUse"><stop offset="0" stop-color="#3743f9"/><stop offset="1" stop-color="#7752fa"/></linearGradient><clipPath id="clip-path-2"><path class="cls-1" d="M46.14,23.62a1.65,1.65,0,0,0,3.3,0A24.56,24.56,0,0,0,42.2,6.14a1.65,1.65,0,0,0-2.33,0,1.64,1.64,0,0,0,0,2.33,21.32,21.32,0,0,1,6.27,15.15Z"/></clipPath><clipPath id="clip-path-3"><path class="cls-1" d="M1.65,25.27A1.65,1.65,0,0,0,3.3,23.62,21.28,21.28,0,0,1,9.57,8.47,1.65,1.65,0,1,0,7.24,6.14,24.56,24.56,0,0,0,0,23.62a1.65,1.65,0,0,0,1.65,1.65Z"/></clipPath></defs><g id="Layer_2" data-name="Layer 2"><g id="Layer_1-2" data-name="Layer 1"><g class="cls-2"><polygon class="cls-3" points="18.59 51.31 17.17 52.38 17.17 51.31 18.59 51.31"/><polygon class="cls-4" points="20.31 51.31 17.63 53.32 17.17 52.71 17.17 52.38 18.59 51.31 20.31 51.31"/><polygon class="cls-5" points="22.03 51.31 18.25 54.15 17.63 53.32 20.31 51.31 22.03 51.31"/><polygon class="cls-6" points="23.75 51.31 18.88 54.98 18.25 54.15 22.03 51.31 23.75 51.31"/><polygon class="cls-7" points="25.46 51.31 19.5 55.8 18.88 54.98 23.75 51.31 25.46 51.31"/><polygon class="cls-8" points="27.18 51.31 20.63 56.25 19.84 56.25 19.5 55.8 25.46 51.31 27.18 51.31"/><polygon class="cls-9" points="28.9 51.31 22.34 56.25 20.63 56.25 27.18 51.31 28.9 51.31"/><polygon class="cls-10" points="30.62 51.31 24.06 56.25 22.34 56.25 28.9 51.31 30.62 51.31"/><polygon class="cls-11" points="32.27 51.36 25.78 56.25 24.06 56.25 30.62 51.31 32.27 51.31 32.27 51.36"/><polygon class="cls-12" points="32.27 52.65 27.5 56.25 25.78 56.25 32.27 51.36 32.27 52.65"/><polygon class="cls-13" points="32.27 53.95 29.22 56.25 27.5 56.25 32.27 52.65 32.27 53.95"/><polygon class="cls-14" points="32.27 55.24 30.93 56.25 29.22 56.25 32.27 53.95 32.27 55.24"/><polygon class="cls-15" points="30.93 56.25 32.27 55.24 32.27 56.25 30.93 56.25"/></g><path class="cls-16" d="M49,45.22a25.88,25.88,0,0,1-7.23-18V23.62A17.07,17.07,0,0,0,29.66,7.32V4.94a4.94,4.94,0,0,0-9.88,0V7.32A17.07,17.07,0,0,0,7.69,23.62v3.61a25.88,25.88,0,0,1-7.23,18A1.65,1.65,0,0,0,1.65,48H47.79A1.65,1.65,0,0,0,49,45.22ZM26.37,6.67c-.55,0-1.09-.08-1.65-.08s-1.11,0-1.65.08V4.94a1.65,1.65,0,0,1,3.3,0Z"/><g class="cls-17"><polygon class="cls-18" points="39.82 5.5 39.22 5.95 39.22 5.5 39.82 5.5"/><polygon class="cls-19" points="41.54 5.5 39.22 7.24 39.22 5.95 39.82 5.5 41.54 5.5"/><polygon class="cls-20" points="43 5.5 43.09 5.62 39.22 8.54 39.22 7.24 41.54 5.5 43 5.5"/><polygon class="cls-21" points="43.09 5.62 43.72 6.45 39.22 9.84 39.22 8.54 43.09 5.62"/><polygon class="cls-22" points="43.72 6.45 44.34 7.27 39.22 11.13 39.22 9.84 43.72 6.45"/><polygon class="cls-23" points="44.34 7.27 44.96 8.1 39.22 12.43 39.22 11.13 44.34 7.27"/><polygon class="cls-24" points="44.96 8.1 45.59 8.93 39.22 13.72 39.22 12.43 44.96 8.1"/><polygon class="cls-25" points="45.59 8.93 46.21 9.75 39.22 15.02 39.22 13.72 45.59 8.93"/><polygon class="cls-26" points="46.21 9.75 46.83 10.58 39.59 16.03 39.22 15.54 39.22 15.02 46.21 9.75"/><rect class="cls-27" x="38.99" y="13.2" width="9.06" height="1.03" transform="translate(0.51 28.97) rotate(-37.02)"/><rect class="cls-28" x="39.62" y="14.03" width="9.06" height="1.03" transform="translate(0.14 29.51) rotate(-37.02)"/><rect class="cls-29" x="40.24" y="14.85" width="9.06" height="1.03" transform="matrix(0.8, -0.6, 0.6, 0.8, -0.23, 30.05)"/><rect class="cls-30" x="40.86" y="15.68" width="9.06" height="1.03" transform="translate(-0.6 30.59) rotate(-37.02)"/><polygon class="cls-31" points="49.32 13.88 49.44 14.03 49.44 15.09 42.71 20.16 42.09 19.34 49.32 13.88"/><polygon class="cls-32" points="49.44 16.39 43.33 20.99 42.71 20.16 49.44 15.09 49.44 16.39"/><polygon class="cls-33" points="49.44 17.68 43.95 21.82 43.33 20.99 49.44 16.39 49.44 17.68"/><polygon class="cls-34" points="49.44 18.98 44.58 22.64 43.95 21.82 49.44 17.68 49.44 18.98"/><polygon class="cls-35" points="49.44 20.27 45.2 23.47 44.58 22.64 49.44 18.98 49.44 20.27"/><polygon class="cls-36" points="49.44 21.57 45.82 24.29 45.2 23.47 49.44 20.27 49.44 21.57"/><polygon class="cls-37" points="49.44 22.86 46.45 25.12 45.82 24.29 49.44 21.57 49.44 22.86"/><polygon class="cls-38" points="49.44 24.16 47.97 25.27 46.56 25.27 46.45 25.12 49.44 22.86 49.44 24.16"/><polygon class="cls-39" points="47.97 25.27 49.44 24.16 49.44 25.27 47.97 25.27"/></g><g class="cls-40"><polygon class="cls-41" points="3.74 5.5 0 8.32 0 5.5 3.74 5.5"/><polygon class="cls-41" points="5.46 5.5 0 9.61 0 8.32 3.74 5.5 5.46 5.5"/><polygon class="cls-42" points="7.17 5.5 0 10.91 0 9.61 5.46 5.5 7.17 5.5"/><polygon class="cls-43" points="8.89 5.5 0 12.2 0 10.91 7.17 5.5 8.89 5.5"/><polygon class="cls-44" points="9.38 5.5 9.83 6.09 0 13.5 0 12.2 8.89 5.5 9.38 5.5"/><polygon class="cls-45" points="9.83 6.09 10.21 6.6 10.21 7.09 0 14.79 0 13.5 9.83 6.09"/><polygon class="cls-46" points="10.21 8.39 0 16.09 0 14.79 10.21 7.09 10.21 8.39"/><polygon class="cls-47" points="10.21 9.68 0 17.39 0 16.09 10.21 8.39 10.21 9.68"/><polygon class="cls-48" points="10.21 10.98 0 18.68 0 17.39 10.21 9.68 10.21 10.98"/><polygon class="cls-49" points="10.21 12.28 0 19.98 0 18.68 10.21 10.98 10.21 12.28"/><polygon class="cls-50" points="10.21 13.57 0 21.27 0 19.98 10.21 12.28 10.21 13.57"/><polygon class="cls-51" points="10.21 14.87 0 22.57 0 21.27 10.21 13.57 10.21 14.87"/><polygon class="cls-52" points="10.21 16.16 0 23.86 0 22.57 10.21 14.87 10.21 16.16"/><polygon class="cls-53" points="10.21 17.46 0.21 25 0 24.72 0 23.86 10.21 16.16 10.21 17.46"/><polygon class="cls-54" points="10.21 18.75 1.57 25.27 0.41 25.27 0.21 25 10.21 17.46 10.21 18.75"/><polygon class="cls-55" points="10.21 20.05 3.29 25.27 1.57 25.27 10.21 18.75 10.21 20.05"/><polygon class="cls-56" points="10.21 21.34 5.01 25.27 3.29 25.27 10.21 20.05 10.21 21.34"/><polygon class="cls-57" points="10.21 22.64 6.73 25.27 5.01 25.27 10.21 21.34 10.21 22.64"/><polygon class="cls-58" points="10.21 23.94 8.45 25.27 6.73 25.27 10.21 22.64 10.21 23.94"/><polygon class="cls-59" points="10.21 25.23 10.16 25.27 8.45 25.27 10.21 23.94 10.21 25.23"/><polygon class="cls-60" points="10.16 25.27 10.21 25.23 10.21 25.27 10.16 25.27"/></g></g></g></svg>