<svg xmlns="http://www.w3.org/2000/svg" viewBox="0 0 64 56.25"><defs><style>.cls-1{fill:#fed843;}.cls-2{fill:#fabe2c;}.cls-3{fill:#ff641a;}.cls-4{fill:#f03800;}.cls-5{fill:#613d5c;}.cls-6{fill:#4b2746;}</style></defs><g id="Layer_2" data-name="Layer 2"><g id="Layer_1-2" data-name="Layer 1"><path class="cls-1" d="M50.75,0h-15A13.25,13.25,0,0,0,22.5,13.13a13.26,13.26,0,0,0,11.38,13v5.76a1.87,1.87,0,0,0,3.2,1.32L43.25,27l.78-.78h6.72A13.25,13.25,0,0,0,64,13.12,13.25,13.25,0,0,0,50.75,0Z"/><path class="cls-2" d="M50.75,26.25A13.25,13.25,0,0,0,64,13.13,13.25,13.25,0,0,0,50.75,0h-7.5V27l.78-.78Z"/><path class="cls-3" d="M47.75,43.13v7.5a5.61,5.61,0,0,1-5.6,5.62c-10.8,0-21.34-5.11-29.18-12.91S0,25,0,14.22A5.6,5.6,0,0,1,5.62,8.63h7.5A1.86,1.86,0,0,1,14.9,9.91l3.75,11.22a1.82,1.82,0,0,1-.22,1.63l-3.18,4.78a29.62,29.62,0,0,0,5.8,7.72A30.48,30.48,0,0,0,28.84,41l4.77-3.18a1.88,1.88,0,0,1,1.63-.21l11.25,3.75a1.84,1.84,0,0,1,1.26,1.78Z"/><path class="cls-4" d="M47.75,43.13v7.5a5.61,5.61,0,0,1-5.6,5.62c-10.8,0-21.34-5.11-29.18-12.91l8.08-8.08A30.48,30.48,0,0,0,28.84,41l4.77-3.18a1.88,1.88,0,0,1,1.63-.21l11.25,3.75A1.84,1.84,0,0,1,47.75,43.13Z"/><circle class="cls-5" cx="35.75" cy="13.12" r="1.87"/><circle class="cls-5" cx="43.25" cy="13.12" r="1.87"/><path class="cls-6" d="M45.13,13.12a1.88,1.88,0,0,0-1.88-1.87V15A1.88,1.88,0,0,0,45.13,13.12Z"/><circle class="cls-6" cx="50.75" cy="13.12" r="1.87"/></g></g></svg>