<?xml version="1.0" encoding="utf-8"?>
<!-- Generator: Adobe Illustrator 25.0.0, SVG Export Plug-In . SVG Version: 6.00 Build 0)  -->
<svg version="1.1" id="Layer_1" xmlns="http://www.w3.org/2000/svg" xmlns:xlink="http://www.w3.org/1999/xlink" x="0px" y="0px"
	 viewBox="0 0 56.3 56.3" style="enable-background:new 0 0 56.3 56.3;" xml:space="preserve">
<style type="text/css">
	.st0{fill:#676767;}
	.st1{fill:#97CEEF;}
	.st2{fill:#535352;}
	.st3{fill:#EC7061;}
</style>
<g id="Layer_2_1_">
	<g id="Layer_1-2">
		<path class="st0" d="M30.1,3H2.7C1.2,3.1,0,4.3,0,5.8c0,0,0,0,0,0v47.7c0,1.5,1.1,2.7,2.6,2.7c0,0,0.1,0,0.1,0h27.4
			c1.5,0,2.7-1.1,2.7-2.6c0,0,0-0.1,0-0.1V5.9C32.8,4.3,31.6,3.1,30.1,3C30.1,3.1,30.1,3.1,30.1,3z"/>
		<path class="st1" d="M2.3,7.5h28.3v41.4H2.3V7.5z"/>
		<circle class="st2" cx="16.4" cy="52.5" r="2.3"/>
		<path class="st2" d="M19.8,4.9h-6.7c-0.2,0-0.4,0.2-0.5,0.5c0,0.2,0.2,0.5,0.5,0.5h6.7c0.3,0,0.5-0.2,0.5-0.5
			C20.3,5.1,20.1,4.9,19.8,4.9z"/>
		<path class="st3" d="M35.4,0C23.9,0,14.5,6.8,14.5,15.2c0,4.6,2.7,8.6,7,11.4l-4.6,10.9c-0.2,0.4,0,0.8,0.4,1
			c0.3,0.1,0.6,0.1,0.8-0.1L31.4,30c1.3,0.2,2.7,0.3,4,0.2c11.5,0.1,20.9-6.7,20.9-15S46.9,0,35.4,0z"/>
	</g>
</g>
</svg>
